<svg width="355" height="269" viewBox="0 0 355 269" fill="none" xmlns="http://www.w3.org/2000/svg">
<rect y="128.974" width="257.947" height="161.31" rx="19.6432" transform="rotate(-30 0 128.974)" fill="#F68F51"/>
<path d="M225.988 170.26C224.976 170.844 223.97 171.084 222.972 170.98C221.973 170.875 221.044 170.435 220.184 169.658L221.696 167.802C222.264 168.297 222.806 168.588 223.32 168.677C223.843 168.76 224.365 168.652 224.886 168.351C225.512 167.99 225.897 167.498 226.039 166.876C226.191 166.248 226.072 165.597 225.682 164.922L222.143 158.791L224.239 157.581L227.812 163.77C228.286 164.589 228.527 165.407 228.536 166.225C228.539 167.032 228.325 167.786 227.894 168.485C227.462 169.184 226.827 169.776 225.988 170.26ZM235.367 164.845C234.615 165.279 233.835 165.498 233.027 165.502C232.22 165.505 231.468 165.316 230.772 164.934C230.076 164.552 229.516 163.994 229.093 163.262C228.67 162.529 228.462 161.769 228.47 160.98C228.481 160.177 228.691 159.426 229.098 158.728C229.514 158.025 230.098 157.456 230.85 157.022C231.602 156.588 232.382 156.369 233.19 156.366C234.007 156.357 234.762 156.551 235.454 156.948C236.15 157.33 236.71 157.887 237.133 158.62C237.556 159.353 237.758 160.116 237.741 160.91C237.734 161.698 237.527 162.441 237.12 163.139C236.713 163.837 236.128 164.405 235.367 164.845ZM234.373 163.124C234.769 162.896 235.065 162.597 235.262 162.226C235.469 161.849 235.569 161.444 235.563 161.011C235.561 160.562 235.443 160.135 235.209 159.73C234.97 159.316 234.659 159 234.277 158.784C233.905 158.562 233.504 158.446 233.075 158.437C232.649 158.413 232.239 158.515 231.844 158.743C231.458 158.966 231.165 159.27 230.964 159.656C230.757 160.033 230.656 160.437 230.662 160.871C230.669 161.304 230.791 161.729 231.031 162.143C231.264 162.548 231.57 162.866 231.948 163.098C232.321 163.32 232.721 163.435 233.151 163.445C233.58 163.454 233.988 163.347 234.373 163.124ZM240.521 161.677L234.677 151.555L236.408 149.977L238.511 153.621C238.785 152.782 239.341 152.12 240.18 151.636C240.768 151.296 241.359 151.129 241.953 151.133C242.55 151.122 243.105 151.271 243.618 151.579C244.124 151.878 244.55 152.326 244.895 152.924L247.592 157.594L245.611 158.738L243.081 154.357C242.797 153.865 242.435 153.56 241.994 153.442C241.547 153.314 241.083 153.389 240.601 153.668C240.264 153.862 240.004 154.102 239.822 154.388C239.634 154.663 239.522 154.972 239.488 155.313L242.502 160.533L240.521 161.677ZM249.092 156.728L244.743 149.194L246.724 148.051L247.083 148.672C247.357 147.833 247.913 147.171 248.751 146.687C249.339 146.348 249.93 146.18 250.524 146.184C251.122 146.173 251.677 146.322 252.189 146.63C252.696 146.929 253.122 147.377 253.467 147.975L256.163 152.645L254.182 153.789L251.653 149.408C251.369 148.916 251.006 148.611 250.565 148.493C250.119 148.365 249.655 148.441 249.173 148.719C248.835 148.914 248.575 149.154 248.393 149.439C248.205 149.715 248.094 150.023 248.059 150.364L251.073 155.584L249.092 156.728ZM237.176 189.204C236.356 189.677 235.47 189.99 234.517 190.142C233.558 190.284 232.613 190.251 231.683 190.042L232.015 187.846C232.904 188.027 233.685 188.077 234.358 187.997C235.041 187.911 235.686 187.693 236.294 187.342C236.718 187.097 237.056 186.837 237.309 186.563C237.556 186.279 237.706 185.993 237.759 185.706C237.821 185.413 237.777 185.136 237.627 184.876C237.426 184.529 237.148 184.336 236.792 184.297C236.43 184.249 235.914 184.348 235.246 184.592L233.036 185.406C232.094 185.756 231.263 185.831 230.543 185.63C229.832 185.423 229.266 184.954 228.843 184.221C228.481 183.594 228.326 182.958 228.377 182.312C228.437 181.66 228.692 181.043 229.141 180.463C229.594 179.867 230.23 179.333 231.049 178.86C231.792 178.431 232.601 178.131 233.479 177.958C234.366 177.78 235.222 177.749 236.046 177.864L235.82 180.077C234.292 179.879 232.993 180.09 231.923 180.707C231.547 180.924 231.247 181.162 231.023 181.42C230.8 181.677 230.661 181.938 230.606 182.2C230.557 182.448 230.598 182.687 230.732 182.918C230.91 183.227 231.16 183.404 231.482 183.449C231.798 183.485 232.242 183.396 232.812 183.182L234.905 182.398C236.011 181.978 236.955 181.864 237.734 182.057C238.508 182.24 239.121 182.721 239.571 183.502C239.95 184.158 240.108 184.831 240.044 185.523C239.976 186.206 239.696 186.868 239.206 187.511C238.72 188.139 238.043 188.703 237.176 189.204ZM242.469 185.955L238.12 178.421L240.101 177.278L240.435 177.856C240.696 177.062 241.213 176.443 241.984 175.998C242.476 175.714 242.973 175.562 243.475 175.542C243.972 175.512 244.449 175.603 244.905 175.815C245.002 175.27 245.202 174.782 245.506 174.35C245.818 173.912 246.23 173.546 246.741 173.251C247.31 172.923 247.882 172.766 248.456 172.782C249.034 172.782 249.575 172.939 250.078 173.253C250.584 173.552 251.01 174 251.355 174.597L254.052 179.268L252.085 180.403L249.556 176.022C249.272 175.53 248.919 175.22 248.497 175.091C248.07 174.952 247.64 175.007 247.206 175.258C246.907 175.43 246.668 175.652 246.49 175.922C246.321 176.186 246.223 176.494 246.194 176.845C246.254 176.926 246.313 177.007 246.373 177.088C246.433 177.169 246.493 177.263 246.554 177.369L249.251 182.04L247.27 183.183L244.74 178.802C244.457 178.31 244.104 178 243.682 177.871C243.265 177.726 242.839 177.779 242.405 178.03C242.106 178.202 241.87 178.416 241.695 178.671C241.531 178.92 241.433 179.207 241.403 179.533L244.45 184.811L242.469 185.955ZM255.559 178.397L251.21 170.864L253.191 169.72L257.54 177.254L255.559 178.397ZM251.676 169.4C251.367 169.578 251.038 169.62 250.688 169.526C250.339 169.433 250.075 169.231 249.897 168.923C249.713 168.605 249.671 168.276 249.77 167.936C249.864 167.586 250.065 167.322 250.373 167.144C250.691 166.96 251.02 166.918 251.361 167.017C251.705 167.101 251.969 167.302 252.152 167.621C252.33 167.929 252.373 168.258 252.279 168.608C252.195 168.952 251.994 169.216 251.676 169.4ZM262.728 174.413C261.889 174.897 261.145 175.076 260.494 174.951C259.847 174.81 259.312 174.374 258.889 173.641L256.719 169.881L255.171 170.775L254.22 169.126L255.767 168.233L254.656 166.31L256.379 164.718L257.748 167.089L259.902 165.845L260.854 167.494L258.7 168.738L260.636 172.092C260.837 172.439 261.059 172.645 261.302 172.711C261.54 172.766 261.851 172.683 262.237 172.46C262.43 172.349 262.598 172.239 262.741 172.131C262.888 172.007 263.038 171.856 263.192 171.677L264.136 173.311C263.972 173.495 263.747 173.696 263.461 173.913C263.184 174.124 262.94 174.29 262.728 174.413ZM265.218 172.821L259.374 162.699L261.105 161.122L263.209 164.765C263.482 163.926 264.039 163.264 264.877 162.78C265.465 162.441 266.056 162.273 266.65 162.277C267.248 162.266 267.803 162.415 268.315 162.723C268.822 163.022 269.247 163.47 269.592 164.068L272.289 168.739L270.308 169.882L267.778 165.501C267.495 165.009 267.132 164.704 266.691 164.586C266.245 164.459 265.78 164.534 265.298 164.812C264.961 165.007 264.701 165.247 264.519 165.532C264.331 165.808 264.22 166.116 264.185 166.457L267.199 171.677L265.218 172.821Z" fill="white"/>
<g clip-path="url(#clip0_1922_7084)">
<circle cx="271.975" cy="150.275" r="52.4789" fill="white"/>
<path fill-rule="evenodd" clip-rule="evenodd" d="M270.62 104.878C245.884 104.878 225.832 124.93 225.832 149.666C225.832 174.402 245.884 194.455 270.62 194.455C295.357 194.455 315.409 174.402 315.409 149.666C315.409 124.93 295.357 104.878 270.62 104.878ZM212.051 149.666C212.051 117.319 238.273 91.0967 270.62 91.0967C302.967 91.0967 329.19 117.319 329.19 149.666C329.19 163.357 324.492 175.95 316.621 185.923L341.788 211.09C344.479 213.78 344.479 218.143 341.788 220.834C339.098 223.525 334.735 223.525 332.044 220.834L306.877 195.667C296.904 203.538 284.311 208.236 270.62 208.236C238.273 208.236 212.051 182.013 212.051 149.666ZM263.73 125.549C263.73 121.744 266.815 118.659 270.62 118.659C287.745 118.659 301.628 132.541 301.628 149.666C301.628 153.472 298.543 156.557 294.737 156.557C290.931 156.557 287.847 153.472 287.847 149.666C287.847 140.152 280.134 132.44 270.62 132.44C266.815 132.44 263.73 129.355 263.73 125.549Z" fill="#2D3577"/>
</g>
<defs>
<clipPath id="clip0_1922_7084">
<rect width="146" height="162" fill="white" transform="translate(208.523 71.001)"/>
</clipPath>
</defs>
</svg>
