<svg width="24" height="24" viewBox="0 0 24 24" fill="none" xmlns="http://www.w3.org/2000/svg">
<path fill-rule="evenodd" clip-rule="evenodd" d="M14.607 2.0117C14.5639 2.00401 14.5196 2 14.4743 2C14.429 2 14.3847 2.00401 14.3416 2.0117H8.084C5.5967 2.0117 3.5 4.02953 3.5 6.4907V17.2037C3.5 19.8043 5.5046 21.8647 8.084 21.8647H16.073C18.5263 21.8647 20.552 19.7028 20.552 17.2037V8.0377C20.552 7.84408 20.4771 7.65797 20.343 7.5183L15.278 2.2423C15.1366 2.09498 14.9412 2.0117 14.737 2.0117H14.607ZM13.7243 3.5109L8.084 3.5117C6.41254 3.5117 5 4.8711 5 6.4907V17.2037C5 18.9849 6.34239 20.3647 8.084 20.3647H16.073C17.6753 20.3647 19.052 18.8954 19.052 17.2037L19.0513 8.98309L18.1758 8.98607C17.8422 8.98566 17.4627 8.98496 17.0407 8.984C15.2712 8.98026 13.827 7.59329 13.7295 5.84739L13.7243 5.659V3.5109ZM18.2305 7.48384L17.044 7.484C16.0385 7.48188 15.2243 6.66546 15.2243 5.659V4.35245L18.2305 7.48384ZM14.2843 14.8076C14.6985 14.8076 15.0343 15.1434 15.0343 15.5576C15.0343 15.9373 14.7521 16.2511 14.3861 16.3008L14.2843 16.3076H8.8873C8.47309 16.3076 8.1373 15.9718 8.1373 15.5576C8.1373 15.1779 8.41946 14.8641 8.78553 14.8144L8.8873 14.8076H14.2843ZM12.9928 10.6054C12.9928 10.1912 12.657 9.8554 12.2428 9.8554H8.8868L8.78503 9.86225C8.41895 9.91191 8.1368 10.2257 8.1368 10.6054C8.1368 11.0196 8.47259 11.3554 8.8868 11.3554H12.2428L12.3446 11.3486C12.7106 11.2989 12.9928 10.9851 12.9928 10.6054Z" fill="#2C3577"/>
</svg>
