<svg width="40" height="40" viewBox="0 0 40 40" fill="none" xmlns="http://www.w3.org/2000/svg">
<rect x="40" y="40" width="40" height="40" rx="20" transform="rotate(180 40 40)" fill="white"/>
<path fill-rule="evenodd" clip-rule="evenodd" d="M27.957 20.0028C27.957 19.8521 27.8971 19.7076 27.7906 19.6011C27.684 19.4945 27.5395 19.4347 27.3888 19.4347H13.9877L17.5638 15.8597C17.6705 15.753 17.7304 15.6083 17.7304 15.4574C17.7304 15.3065 17.6705 15.1618 17.5638 15.0551C17.4571 14.9484 17.3124 14.8885 17.1615 14.8885C17.0106 14.8885 16.8659 14.9484 16.7593 15.0551L12.2138 19.6006C12.1609 19.6533 12.1189 19.716 12.0903 19.7851C12.0616 19.8541 12.0469 19.9281 12.0469 20.0028C12.0469 20.0776 12.0616 20.1516 12.0903 20.2206C12.1189 20.2896 12.1609 20.3523 12.2138 20.4051L16.7593 24.9506C16.8121 25.0034 16.8748 25.0453 16.9438 25.0739C17.0128 25.1025 17.0868 25.1172 17.1615 25.1172C17.3124 25.1172 17.4571 25.0573 17.5638 24.9506C17.6705 24.8439 17.7304 24.6992 17.7304 24.5483C17.7304 24.3974 17.6705 24.2527 17.5638 24.146L13.9877 20.571H27.3888C27.5395 20.571 27.684 20.5112 27.7906 20.4046C27.8971 20.298 27.957 20.1535 27.957 20.0028Z" fill="#2C3577" stroke="#2C3577" stroke-width="0.909091"/>
</svg>
