<svg width="32" height="32" viewBox="0 0 32 32" fill="none" xmlns="http://www.w3.org/2000/svg">
<rect x="0.5" y="0.5" width="31" height="31" rx="15.5" fill="white"/>
<path fill-rule="evenodd" clip-rule="evenodd" d="M3 16.0726C3 22.5357 7.69408 27.9102 13.8333 29V19.6107H10.5833V16H13.8333V13.1108C13.8333 9.86075 15.9274 8.05592 18.8892 8.05592C19.8274 8.05592 20.8392 8.2 21.7774 8.34408V11.6667H20.1167C18.5274 11.6667 18.1667 12.4607 18.1667 13.4726V16H21.6333L21.0559 19.6107H18.1667V29C24.3059 27.9102 29 22.5368 29 16.0726C29 8.8825 23.15 3 16 3C8.85 3 3 8.8825 3 16.0726Z" fill="#2D3577"/>
<rect x="0.5" y="0.5" width="31" height="31" rx="15.5" stroke="#2D3577"/>
</svg>
