<svg width="32" height="32" viewBox="0 0 32 32" fill="none" xmlns="http://www.w3.org/2000/svg">
<rect x="0.5" y="0.5" width="31" height="31" rx="15.5" fill="white"/>
<path fill-rule="evenodd" clip-rule="evenodd" d="M14.2003 13.8783H16.8001V15.1733C17.1746 14.4285 18.135 13.7593 19.5777 13.7593C22.3434 13.7593 23 15.2419 23 17.9621V23H20.2V18.5816C20.2 17.0325 19.8255 16.1589 18.8721 16.1589C17.5498 16.1589 17.0003 17.1004 17.0003 18.5809V23H14.2003V13.8783ZM9.399 22.881H12.199V13.7593H9.399V22.881ZM12.6001 10.785C12.6002 11.0197 12.5537 11.2521 12.4632 11.4686C12.3727 11.6852 12.2401 11.8816 12.073 12.0464C11.7345 12.3828 11.2763 12.5712 10.799 12.57C10.3226 12.5697 9.86542 12.3818 9.5264 12.0471C9.35995 11.8817 9.22777 11.6851 9.13744 11.4685C9.04711 11.2519 9.00041 11.0197 9 10.785C9 10.3111 9.189 9.8575 9.5271 9.5229C9.86582 9.18771 10.3232 8.99979 10.7997 9C11.2771 9 11.7349 9.1883 12.073 9.5229C12.4104 9.8575 12.6001 10.3111 12.6001 10.785Z" fill="#2D3577"/>
<rect x="0.5" y="0.5" width="31" height="31" rx="15.5" stroke="#2D3577"/>
</svg>
