<svg width="28" height="22" viewBox="0 0 28 22" fill="none" xmlns="http://www.w3.org/2000/svg">
<path d="M24.6026 5.5603C24.6189 5.79539 24.6189 6.03047 24.6189 6.26773C24.6189 13.4969 19.1155 21.8344 9.05223 21.8344V21.8301C6.07952 21.8344 3.16856 20.9829 0.666016 19.3773C1.09827 19.4293 1.5327 19.4553 1.9682 19.4564C4.43174 19.4586 6.82486 18.632 8.76298 17.1099C6.42186 17.0655 4.36891 15.539 3.65173 13.3106C4.47183 13.4688 5.31684 13.4363 6.12177 13.2163C3.56939 12.7007 1.73312 10.4581 1.73312 7.85375C1.73312 7.82992 1.73312 7.80717 1.73312 7.78442C2.49363 8.20801 3.34514 8.4431 4.21615 8.4691C1.8122 6.86249 1.07119 3.66444 2.52288 1.16407C5.30059 4.58204 9.3989 6.6599 13.7984 6.87982C13.3575 4.97962 13.9598 2.98843 15.3812 1.65266C17.5847 -0.418709 21.0503 -0.312541 23.1217 1.88991C24.347 1.64832 25.5213 1.19873 26.596 0.561723C26.1876 1.82816 25.3328 2.90393 24.191 3.58752C25.2754 3.45968 26.3349 3.16935 27.3327 2.72626C26.5982 3.82694 25.673 4.78571 24.6026 5.5603Z" fill="#2D3577"/>
</svg>
