<svg width="51" height="51" viewBox="0 0 51 51" fill="none" xmlns="http://www.w3.org/2000/svg">
<rect y="0.0664062" width="50.7267" height="50.7267" rx="4.49784" fill="#2D3577"/>
<path d="M17.1071 17.6977V31.9532C17.1069 33.3637 17.623 34.7214 18.5506 35.751C19.4782 36.7807 20.748 37.4051 22.1023 37.4976L22.453 37.5087H31.8918C31.6707 38.1585 31.2612 38.7211 30.7197 39.1191C30.1782 39.5171 29.5313 39.7308 28.8681 39.7309H21.3838C19.6825 39.7309 18.0507 39.0285 16.8477 37.7783C15.6446 36.5281 14.9688 34.8324 14.9688 33.0643V20.8422C14.9684 20.1526 15.1739 19.4798 15.5569 18.9166C15.9398 18.3535 16.4815 17.9276 17.1071 17.6977ZM33.1448 13.0645C33.9955 13.0645 34.8114 13.4156 35.4129 14.0408C36.0144 14.6659 36.3524 15.5137 36.3524 16.3978V31.9532C36.3524 32.8372 36.0144 33.6851 35.4129 34.3102C34.8114 34.9353 33.9955 35.2865 33.1448 35.2865H22.453C21.6023 35.2865 20.7865 34.9353 20.1849 34.3102C19.5834 33.6851 19.2455 32.8372 19.2455 31.9532V16.3978C19.2455 15.5137 19.5834 14.6659 20.1849 14.0408C20.7865 13.4156 21.6023 13.0645 22.453 13.0645H33.1448Z" fill="white"/>
</svg>
