<svg width="42" height="42" viewBox="0 0 42 42" fill="none" xmlns="http://www.w3.org/2000/svg">
<path d="M21 3.5C30.6649 3.5 38.5 11.335 38.5 21C38.5 30.6649 30.6649 38.5 21 38.5C11.335 38.5 3.5 30.6649 3.5 21C3.5 11.335 11.335 3.5 21 3.5ZM21 7C13.268 7 7 13.268 7 21C7 28.732 13.268 35 21 35C28.732 35 35 28.732 35 21C35 13.268 28.732 7 21 7Z" fill="#F58F51"/>
<path d="M26.7937 15.4323C27.4336 14.796 28.4712 14.796 29.1111 15.4323C29.7017 16.0197 29.7472 16.944 29.2474 17.5832L29.1111 17.7367L19.9573 26.8392C19.3037 27.4892 18.2729 27.5356 17.5653 26.9784L17.4081 26.8392L12.8891 22.3456C12.2492 21.7093 12.2492 20.6775 12.8891 20.0412C13.4798 19.4537 14.4093 19.4085 15.0522 19.9056L15.2065 20.0412L18.6826 23.4978L26.7937 15.4323Z" fill="#F58F51"/>
</svg>
