<svg width="51" height="52" viewBox="0 0 51 52" fill="none" xmlns="http://www.w3.org/2000/svg">
<rect y="0.884766" width="50.7267" height="50.7267" rx="4.49784" fill="#2D3577"/>
<g clip-path="url(#clip0_1273_1862)">
<path d="M39.4268 17.706C38.4183 18.1529 37.3349 18.4548 36.196 18.5913C37.3711 17.8881 38.2503 16.7814 38.6695 15.4776C37.5654 16.1334 36.357 16.5951 35.0969 16.8424C34.2495 15.9376 33.1271 15.3379 31.9039 15.1364C30.6807 14.9349 29.4253 15.1428 28.3324 15.7279C27.2395 16.3131 26.3704 17.2426 25.86 18.3723C25.3495 19.502 25.2263 20.7686 25.5095 21.9755C23.2723 21.8632 21.0838 21.2817 19.0859 20.2688C17.0879 19.2559 15.3253 17.8342 13.9124 16.096C13.4293 16.9294 13.1515 17.8956 13.1515 18.9246C13.151 19.851 13.3791 20.7632 13.8157 21.5802C14.2522 22.3973 14.8837 23.0939 15.654 23.6084C14.7606 23.58 13.8869 23.3386 13.1056 22.9043V22.9767C13.1055 24.276 13.555 25.5353 14.3776 26.5409C15.2003 27.5465 16.3456 28.2365 17.6191 28.4939C16.7903 28.7182 15.9214 28.7512 15.0779 28.5905C15.4372 29.7084 16.1372 30.686 17.0797 31.3864C18.0222 32.0868 19.1601 32.4749 20.3342 32.4964C18.3412 34.061 15.8798 34.9097 13.346 34.906C12.8971 34.9061 12.4487 34.8799 12.0029 34.8275C14.5749 36.4811 17.5688 37.3587 20.6265 37.3553C30.9771 37.3553 36.6356 28.7825 36.6356 21.3474C36.6356 21.1059 36.6296 20.8619 36.6187 20.6203C37.7193 19.8244 38.6694 18.8387 39.4244 17.7096L39.4268 17.706Z" fill="white"/>
</g>
<defs>
<clipPath id="clip0_1273_1862">
<rect width="28.9867" height="28.9867" fill="white" transform="translate(10.8711 11.7539)"/>
</clipPath>
</defs>
</svg>
