<svg width="52" height="52" viewBox="0 0 52 52" fill="none" xmlns="http://www.w3.org/2000/svg">
<path d="M26.0026 4.33398C37.9687 4.33398 47.6693 14.0345 47.6693 26.0007C47.6693 37.9667 37.9687 47.6673 26.0026 47.6673C14.0364 47.6673 4.33594 37.9667 4.33594 26.0007C4.33594 14.0345 14.0364 4.33398 26.0026 4.33398ZM26.0026 8.66732C16.4297 8.66732 8.66927 16.4277 8.66927 26.0007C8.66927 35.5736 16.4297 43.334 26.0026 43.334C35.5756 43.334 43.3359 35.5736 43.3359 26.0007C43.3359 16.4277 35.5756 8.66732 26.0026 8.66732Z" fill="#F68F51"/>
<path d="M33.1727 19.1065C33.9649 18.3187 35.2496 18.3187 36.0418 19.1065C36.7731 19.8338 36.8294 20.9781 36.2106 21.7695L36.0418 21.9596L24.7086 33.2292C23.8993 34.034 22.6231 34.0915 21.7471 33.4017L21.5524 33.2292L15.9575 27.6658C15.1652 26.878 15.1652 25.6005 15.9575 24.8127C16.6889 24.0853 17.8397 24.0294 18.6356 24.6449L18.8267 24.8127L23.1304 29.0923L33.1727 19.1065Z" fill="#F68F51"/>
</svg>
