<svg width="18" height="16" viewBox="0 0 18 16" fill="none" xmlns="http://www.w3.org/2000/svg">
<path d="M17 14C17.5523 14 18 14.4477 18 15C18 15.5128 17.614 15.9355 17.1166 15.9933L17 16H1C0.44772 16 0 15.5523 0 15C0 14.4872 0.386044 14.0645 0.88338 14.0067L1 14H17ZM17 7C17.5523 7 18 7.4477 18 8C18 8.5523 17.5523 9 17 9H1C0.44772 9 0 8.5523 0 8C0 7.4477 0.44772 7 1 7H17ZM17 0C17.5523 0 18 0.44772 18 1C18 1.55228 17.5523 2 17 2H1C0.44772 2 0 1.55228 0 1C0 0.44772 0.44772 0 1 0H17Z" fill="#2C3577"/>
</svg>
