<svg width="81" height="80" viewBox="0 0 81 80" fill="none" xmlns="http://www.w3.org/2000/svg">
<circle cx="40.5" cy="40" r="37.5" fill="white" stroke="#F68F51" stroke-width="5"/>
<g clip-path="url(#clip0_8_305)">
<path d="M19.75 34.3389L41.5 21.8439L63.25 34.3389C63.5928 34.5182 63.9917 34.5582 64.3632 34.4504C64.7348 34.3426 65.0503 34.0954 65.244 33.7604C65.4376 33.4255 65.4943 33.0287 65.4022 32.6529C65.3102 32.2771 65.0765 31.9515 64.75 31.7439L41.5 18.3789L18.25 31.7439C18.0708 31.8377 17.9123 31.9667 17.7842 32.1233C17.6562 32.2799 17.5611 32.4608 17.5047 32.6551C17.4483 32.8494 17.4319 33.0531 17.4563 33.2539C17.4807 33.4547 17.5454 33.6486 17.6467 33.8237C17.7479 33.9988 17.8835 34.1517 18.0454 34.2731C18.2072 34.3945 18.392 34.4818 18.5884 34.53C18.7849 34.5781 18.9891 34.586 19.1888 34.5531C19.3884 34.5203 19.5793 34.4474 19.75 34.3389Z" fill="#2D3577"/>
<path d="M20.5 53.0003C20.5 53.3981 20.658 53.7797 20.9393 54.061C21.2206 54.3423 21.6022 54.5003 22 54.5003H61C61.3978 54.5003 61.7794 54.3423 62.0607 54.061C62.342 53.7797 62.5 53.3981 62.5 53.0003C62.5 52.6025 62.342 52.221 62.0607 51.9397C61.7794 51.6583 61.3978 51.5003 61 51.5003H56.5V40.4453H53.5V51.5003H43V40.4453H40V51.5003H29.5V40.4453H26.5V51.5003H22C21.6022 51.5003 21.2206 51.6583 20.9393 51.9397C20.658 52.221 20.5 52.6025 20.5 53.0003Z" fill="#2D3577"/>
<path d="M22.0312 35H61.0313V38H22.0312V35Z" fill="#2D3577"/>
<path d="M64 57.5H19C18.6022 57.5 18.2206 57.658 17.9393 57.9393C17.658 58.2206 17.5 58.6022 17.5 59C17.5 59.3978 17.658 59.7794 17.9393 60.0607C18.2206 60.342 18.6022 60.5 19 60.5H64C64.3978 60.5 64.7794 60.342 65.0607 60.0607C65.342 59.7794 65.5 59.3978 65.5 59C65.5 58.6022 65.342 58.2206 65.0607 57.9393C64.7794 57.658 64.3978 57.5 64 57.5Z" fill="#2D3577"/>
<path d="M47.7252 31.3687H52.5402L42.4752 25.5787C42.2928 25.4734 42.0858 25.418 41.8752 25.418C41.6645 25.418 41.4576 25.4734 41.2752 25.5787L31.1952 31.3687H36.0102L41.8602 28.0087L47.7252 31.3687Z" fill="#2D3577"/>
</g>
<defs>
<clipPath id="clip0_8_305">
<rect x="14.5" y="14" width="54" height="54" rx="8.36539" fill="white"/>
</clipPath>
</defs>
</svg>
