<svg width="32" height="32" viewBox="0 0 32 32" fill="none" xmlns="http://www.w3.org/2000/svg">
<path d="M26.6036 10.5603C26.6199 10.7954 26.6199 11.0305 26.6199 11.2677C26.6199 18.4969 21.1164 26.8344 11.0532 26.8344V26.8301C8.08049 26.8344 5.16953 25.9829 2.66699 24.3773C3.09925 24.4293 3.53367 24.4553 3.96918 24.4564C6.43272 24.4586 8.82584 23.632 10.764 22.1099C8.42283 22.0655 6.36988 20.539 5.65271 18.3106C6.4728 18.4688 7.31782 18.4363 8.12274 18.2163C5.57037 17.7007 3.73409 15.4581 3.73409 12.8538C3.73409 12.8299 3.73409 12.8072 3.73409 12.7844C4.4946 13.208 5.34612 13.4431 6.21713 13.4691C3.81318 11.8625 3.07217 8.66444 4.52385 6.16407C7.30156 9.58204 11.3999 11.6599 15.7994 11.8798C15.3584 9.97962 15.9608 7.98843 17.3821 6.65266C19.5857 4.58129 23.0513 4.68746 25.1227 6.88991C26.3479 6.64832 27.5223 6.19873 28.597 5.56172C28.1886 6.82816 27.3338 7.90393 26.1919 8.58752C27.2764 8.45968 28.3359 8.16935 29.3337 7.72626C28.5991 8.82694 27.674 9.78571 26.6036 10.5603Z" fill="#414042"/>
</svg>
