<svg width="51" height="52" viewBox="0 0 51 52" fill="none" xmlns="http://www.w3.org/2000/svg">
<rect y="0.613281" width="50.7267" height="50.7267" rx="4.49784" fill="#2D3577"/>
<path fill-rule="evenodd" clip-rule="evenodd" d="M22.2597 22.3076H26.7454V24.542C27.3916 23.257 29.0486 22.1023 31.5379 22.1023C36.3098 22.1023 37.4427 24.6604 37.4427 29.3538V38.0462H32.6116V30.4227C32.6116 27.7499 31.9654 26.2426 30.3204 26.2426C28.0389 26.2426 27.0908 27.867 27.0908 30.4215V38.0462H22.2597V22.3076ZM13.9755 37.8409H18.8067V22.1023H13.9755V37.8409ZM19.4987 16.9705C19.4989 17.3754 19.4186 17.7763 19.2625 18.15C19.1063 18.5236 18.8775 18.8625 18.5893 19.1469C18.0052 19.7274 17.2146 20.0523 16.3911 20.0503C15.5691 20.0497 14.7803 19.7256 14.1954 19.1481C13.9082 18.8627 13.6801 18.5235 13.5242 18.1498C13.3684 17.7761 13.2878 17.3753 13.2871 16.9705C13.2871 16.1528 13.6132 15.3702 14.1966 14.7928C14.781 14.2145 15.5701 13.8903 16.3923 13.8906C17.216 13.8906 18.0059 14.2155 18.5893 14.7928C19.1714 15.3702 19.4987 16.1528 19.4987 16.9705Z" fill="white"/>
</svg>
