<svg width="32" height="32" viewBox="0 0 32 32" fill="none" xmlns="http://www.w3.org/2000/svg">
<rect x="0.5" y="0.5" width="31" height="31" rx="15.5" fill="white"/>
<path d="M8.7 9.64875V20.875C8.69983 21.9858 9.1101 23.055 9.84757 23.8658C10.585 24.6767 11.5945 25.1684 12.6712 25.2412L12.95 25.25H20.4538C20.278 25.7617 19.9525 26.2048 19.522 26.5182C19.0915 26.8316 18.5773 26.9999 18.05 27H12.1C10.7474 27 9.45019 26.4469 8.49376 25.4623C7.53732 24.4777 7 23.1424 7 21.75V12.125C6.99972 11.5819 7.16308 11.0521 7.46755 10.6086C7.77202 10.1651 8.20262 9.82977 8.7 9.64875ZM21.45 6C22.1263 6 22.7749 6.27656 23.2531 6.76884C23.7313 7.26113 24 7.92881 24 8.625V20.875C24 21.5712 23.7313 22.2389 23.2531 22.7312C22.7749 23.2234 22.1263 23.5 21.45 23.5H12.95C12.2737 23.5 11.6251 23.2234 11.1469 22.7312C10.6687 22.2389 10.4 21.5712 10.4 20.875V8.625C10.4 7.92881 10.6687 7.26113 11.1469 6.76884C11.6251 6.27656 12.2737 6 12.95 6H21.45Z" fill="#2D3577"/>
<rect x="0.5" y="0.5" width="31" height="31" rx="15.5" stroke="#2D3577"/>
</svg>
