<svg width="145" height="50" viewBox="0 0 145 50" fill="none" xmlns="http://www.w3.org/2000/svg">
<path d="M65.6606 44.6201H67.4671C68.5835 44.6201 69.4537 45.0113 69.4537 46.2024C69.4537 47.3935 68.5 47.8199 67.4363 47.8199H66.5221V49.7801H65.6562V44.6201H65.6606ZM67.4803 47.0595C68.2494 47.0595 68.5967 46.8221 68.5967 46.2288C68.5967 45.6354 68.2494 45.4113 67.4759 45.4113H66.5265V47.0595H67.4803Z" fill="#F28E49"/>
<path d="M71.6995 44.5977H72.5566L74.385 49.7797H73.4928L73.0752 48.5534H71.115L70.6886 49.7797H69.8711L71.6995 44.5977ZM72.8159 47.7842L72.1127 45.6921H72.0995L71.3831 47.7842H72.8203H72.8159Z" fill="#F28E49"/>
<path d="M76.4202 47.5561L74.6621 44.6201H75.5807L76.8729 46.8177L78.1563 44.6201H79.0618L77.2993 47.5561V49.7801H76.4202V47.5561Z" fill="#F28E49"/>
<path d="M79.752 44.6201H80.9035L82.2836 48.7165H82.2968L83.6374 44.6201H84.8109V49.7801H83.967V45.9299H83.9538C83.8791 46.2859 83.7648 46.62 83.6461 46.9848L82.6396 49.7801H81.8661L80.8683 46.9848C80.7409 46.6156 80.6662 46.3914 80.5563 45.8947H80.5431V49.7801H79.7563V44.6201H79.752Z" fill="#F28E49"/>
<path d="M85.9766 44.6201H89.3126V45.4288H86.8512V46.7123H88.6577V47.4858H86.8512V48.9846H89.4532V49.7801H85.981V44.6201H85.9766Z" fill="#F28E49"/>
<path d="M90.3086 44.6201H91.1964L93.6358 48.3033H93.649V44.6201H94.4577V49.7801H93.6622L91.1305 46.0222H91.1173V49.7801H90.3086V44.6201Z" fill="#F28E49"/>
<path d="M96.8176 45.4288H95.2266V44.6201H99.279V45.4288H97.6879V49.7801H96.8176V45.4288Z" fill="#F28E49"/>
<path d="M99.7812 48.5671L100.471 48.2023C100.779 48.8088 101.254 49.1033 101.895 49.1033C102.537 49.1033 102.95 48.9011 102.95 48.4352C102.95 47.9693 102.629 47.7803 101.777 47.5298C100.779 47.2353 99.979 46.9628 99.979 45.9827C99.979 45.1036 100.695 44.5234 101.746 44.5234C102.796 44.5234 103.363 45.0245 103.68 45.631L103.047 46.0706C102.739 45.5563 102.3 45.319 101.742 45.319C101.183 45.319 100.84 45.5299 100.84 45.9035C100.84 46.3826 101.21 46.5453 102.054 46.7958C103.029 47.0815 103.812 47.4023 103.812 48.3737C103.812 49.2176 103.095 49.8812 101.865 49.8812C100.841 49.8812 100.115 49.3494 99.7856 48.5715L99.7812 48.5671Z" fill="#F28E49"/>
<path d="M106.506 44.6201H109.837V45.4288H107.376V46.7123H109.183V47.4858H107.376V48.9846H109.978V49.7801H106.506V44.6201Z" fill="#F28E49"/>
<path d="M110.836 44.6201H111.987L113.368 48.7165H113.381L114.721 44.6201H115.895V49.7801H115.051V45.9299H115.038C114.963 46.2859 114.849 46.62 114.73 46.9848L113.724 49.7801H112.95L111.952 46.9848C111.825 46.6156 111.75 46.3914 111.64 45.8947H111.627V49.7801H110.84V44.6201H110.836Z" fill="#F28E49"/>
<path d="M117.059 44.6201H119.011C120.043 44.6201 120.808 44.9542 120.808 45.9035C120.808 46.62 120.417 46.9848 119.894 47.0902V47.1034C120.527 47.2221 120.962 47.5781 120.962 48.3649C120.962 49.3142 120.189 49.7801 119.134 49.7801H117.055V44.6201H117.059ZM118.927 46.7738C119.613 46.7738 119.973 46.5628 119.973 46.0706C119.973 45.5783 119.661 45.3849 118.94 45.3849H117.916V46.7738H118.927ZM119.046 49.0286C119.784 49.0286 120.105 48.7912 120.105 48.277C120.105 47.7276 119.687 47.5166 118.953 47.5166H117.916V49.0286H119.046Z" fill="#F28E49"/>
<path d="M121.955 44.6201H125.291V45.4288H122.83V46.7123H124.636V47.4858H122.83V48.9846H125.432V49.7801H121.959V44.6201H121.955Z" fill="#F28E49"/>
<path d="M126.285 44.6201H127.758C129.375 44.6201 130.434 45.3717 130.434 47.1782C130.434 48.9846 129.353 49.7801 127.758 49.7801H126.285V44.6201ZM127.832 49.0022C129.01 49.0022 129.564 48.4879 129.564 47.1825C129.564 45.8772 129.006 45.4332 127.819 45.4332H127.155V49.0022H127.832Z" fill="#F28E49"/>
<path d="M131.361 44.6201H132.834C134.451 44.6201 135.51 45.3717 135.51 47.1782C135.51 48.9846 134.429 49.7801 132.834 49.7801H131.361V44.6201ZM132.908 49.0022C134.086 49.0022 134.64 48.4879 134.64 47.1825C134.64 45.8772 134.082 45.4332 132.895 45.4332H132.232V49.0022H132.908Z" fill="#F28E49"/>
<path d="M136.438 44.6201H139.769V45.4288H137.308V46.7123H139.114V47.4858H137.308V48.9846H139.91V49.7801H136.438V44.6201Z" fill="#F28E49"/>
<path d="M140.766 44.6201H142.238C143.855 44.6201 144.915 45.3717 144.915 47.1782C144.915 48.9846 143.833 49.7801 142.238 49.7801H140.766V44.6201ZM142.313 49.0022C143.491 49.0022 144.044 48.4879 144.044 47.1825C144.044 45.8772 143.486 45.4332 142.3 45.4332H141.636V49.0022H142.313Z" fill="#F28E49"/>
<path d="M14.8384 39.2452C8.99708 39.2452 5.21277 35.9224 2.80856 32.2568V47.7237H0V9.33996H2.80856V15.8713C5.32704 12.0342 9.05422 8.6543 14.8384 8.6543C21.884 8.6543 29.0438 14.3242 29.0438 23.8355V23.9498C29.0438 33.4611 21.884 39.2452 14.8384 39.2452ZM26.0111 23.9498C26.0111 16.2713 20.684 11.3486 14.5527 11.3486C8.4213 11.3486 2.63715 16.4471 2.63715 23.8926V24.0069C2.63715 31.5096 8.47844 36.551 14.5527 36.551C20.6269 36.551 26.0111 31.9096 26.0111 24.064V23.9498Z" fill="white"/>
<path d="M48.0107 36.6086C52.5378 36.6086 55.6276 34.6043 58.0362 32.0243L59.9833 33.7429C57.0033 36.9514 53.5091 39.2413 47.8964 39.2413C40.2179 39.2413 33.5723 33.11 33.5723 24.003V23.8887C33.5723 15.4103 39.5322 8.65039 47.4349 8.65039C55.3375 8.65039 60.8404 15.296 60.8404 23.9459V24.0601C60.8404 24.4601 60.8404 24.6315 60.7833 25.093H36.5522C37.0665 32.3672 42.2793 36.6086 48.0107 36.6086ZM57.8077 22.5745C57.4077 16.6761 54.0278 11.2304 47.325 11.2304C41.5409 11.2304 37.0709 16.1003 36.5566 22.5745H57.8121H57.8077Z" fill="white"/>
<path d="M79.6338 39.2452C71.2125 39.2452 64.7383 32.2568 64.7383 24.064V23.9498C64.7383 15.757 71.2696 8.6543 79.6338 8.6543C85.1322 8.6543 88.5693 11.1728 91.3208 14.0385L89.3165 16.0999C86.7936 13.5198 83.9323 11.2871 79.5766 11.2871C72.931 11.2871 67.7754 16.8426 67.7754 23.8311V23.9454C67.7754 30.991 73.1024 36.6081 79.8052 36.6081C83.9279 36.6081 87.1365 34.4896 89.6022 31.7382L91.5493 33.4567C88.5693 36.8366 85.018 39.2408 79.6338 39.2408V39.2452Z" fill="white"/>
<path d="M106.959 39.0738C102.432 39.0738 98.7663 36.6124 98.7663 31.0524V11.9155H94.5293V9.33551H98.7663V0H101.575V9.33991H111.829V11.9199H101.575V30.7668C101.575 34.951 104.036 36.4366 107.416 36.4366C108.849 36.4366 110.053 36.1509 111.715 35.4037V38.0409C110.225 38.7266 108.792 39.0738 106.959 39.0738Z" fill="white"/>
<path d="M129.933 39.2452C121.283 39.2452 114.98 32.2568 114.98 24.064V23.9498C114.98 15.757 121.34 8.6543 130.047 8.6543C138.754 8.6543 145 15.6427 145 23.8355V23.9498C145 32.1425 138.64 39.2452 129.933 39.2452ZM141.963 23.9498C141.963 16.9042 136.693 11.2871 129.933 11.2871C123.173 11.2871 118.018 16.9569 118.018 23.8311V23.9454C118.018 30.991 123.287 36.6081 130.047 36.6081C136.807 36.6081 141.963 30.9382 141.963 24.064V23.9498Z" fill="white"/>
<path d="M134.702 25.1621V22.8151L125.85 19.0703V21.558L127.296 22.1338L129.432 22.9381V22.9469L132.012 23.971L129.48 24.9599L129.441 24.9775L129.427 24.9819L127.115 25.8522L125.85 26.3708V28.9025L134.702 25.1621Z" fill="#F28E49"/>
</svg>
