<svg width="24" height="24" viewBox="0 0 24 24" fill="none" xmlns="http://www.w3.org/2000/svg">
<path d="M12 2C17.5228 2 22 6.47715 22 12C22 17.5228 17.5228 22 12 22C6.47715 22 2 17.5228 2 12C2 6.47715 6.47715 2 12 2ZM12 16C9.8009 16 7.85121 16.828 6.56532 17.8707C7.9922 19.1922 9.90177 20 12 20C14.0982 20 16.0078 19.1922 17.4347 17.8707C16.1488 16.828 14.1991 16 12 16ZM12 4C7.58172 4 4 7.58172 4 12C4 13.5996 4.46949 15.0896 5.27819 16.3396C6.92692 14.9918 9.33471 14 12 14C14.6653 14 17.0731 14.9918 18.7218 16.3396C19.5305 15.0896 20 13.5996 20 12C20 7.58172 16.4183 4 12 4ZM12 5C14.2091 5 16 6.79086 16 9C16 11.2091 14.2091 13 12 13C9.79086 13 8 11.2091 8 9C8 6.79086 9.79086 5 12 5ZM12 7C10.8954 7 10 7.89543 10 9C10 10.1046 10.8954 11 12 11C13.1046 11 14 10.1046 14 9C14 7.89543 13.1046 7 12 7Z" fill="white"/>
</svg>
