<svg width="48" height="48" viewBox="0 0 48 48" fill="none" xmlns="http://www.w3.org/2000/svg">
<rect width="48" height="48" rx="24" fill="#2D3577"/>
<path fill-rule="evenodd" clip-rule="evenodd" d="M30.5 14C32.433 14 34 15.567 34 17.5C34 19.433 32.433 21 30.5 21C29.5174 21 28.6293 20.5951 27.9936 19.943L23.6699 22.2095C23.8831 22.7654 24 23.3691 24 24C24 24.6309 23.8831 25.2346 23.6699 25.7905L27.9936 28.057C28.6293 27.4049 29.5174 27 30.5 27C32.433 27 34 28.567 34 30.5C34 32.433 32.433 34 30.5 34C28.567 34 27 32.433 27 30.5C27 30.2702 27.0221 30.0455 27.0644 29.8281L22.5885 27.4817C21.6798 28.4181 20.4079 29 19 29C16.2386 29 14 26.7614 14 24C14 21.2386 16.2386 19 19 19C20.4079 19 21.6798 19.5819 22.5885 20.5182L27.0644 18.1719C27.0222 17.9545 27 17.7298 27 17.5C27 15.567 28.567 14 30.5 14ZM30.5 29C29.6716 29 29 29.6716 29 30.5C29 31.3284 29.6716 32 30.5 32C31.3284 32 32 31.3284 32 30.5C32 29.6716 31.3284 29 30.5 29ZM19 21C17.3432 21 16 22.3431 16 24C16 25.6569 17.3432 27 19 27C20.6568 27 22 25.6569 22 24C22 22.3431 20.6568 21 19 21ZM30.5 16C29.6716 16 29 16.6716 29 17.5C29 18.3284 29.6716 19 30.5 19C31.3284 19 32 18.3284 32 17.5C32 16.6716 31.3284 16 30.5 16Z" fill="white"/>
</svg>
