<svg width="744" height="718" viewBox="0 0 744 718" fill="none" xmlns="http://www.w3.org/2000/svg">
<g clip-path="url(#clip0_1922_2262)">
<path d="M-95.1836 645.309C-94.3787 590.839 -78.4684 495.161 36.1955 531.291C193.701 580.918 185.148 385.658 329.213 340.214C480.481 292.497 566.43 422.936 693.454 368.027C820.478 313.117 804.58 116.97 815.726 85.8057" stroke="#FF8E5E" stroke-dasharray="5 5"/>
<path d="M775.238 85.6172C768.99 178.309 795.958 529.496 440.055 394.823C84.1507 260.151 -69.1274 573.586 -73.541 644.963" stroke="#F68F51" stroke-width="2"/>
<path d="M-153.605 612.136C-152.784 557.648 -93.2555 463.446 0.379765 433.869C113.823 398.036 250.352 601.202 387.203 557.975C524.055 514.747 556.164 280.35 610.327 171.207C664.489 62.0632 725.892 25.1684 766.613 1.93555" stroke="#2D3577" stroke-width="2"/>
</g>
<defs>
<clipPath id="clip0_1922_2262">
<rect width="744" height="718" fill="white"/>
</clipPath>
</defs>
</svg>
