<svg width="32" height="32" viewBox="0 0 32 32" fill="none" xmlns="http://www.w3.org/2000/svg">
<rect x="0.5" y="0.5" width="31" height="31" rx="15.5" fill="white"/>
<path d="M24 10.7793C23.4116 11.0799 22.7795 11.2831 22.115 11.3749C22.8007 10.9018 23.3136 10.1572 23.5582 9.27997C22.914 9.72122 22.209 10.0318 21.4738 10.1982C20.9794 9.58947 20.3245 9.18597 19.6109 9.05038C18.8973 8.91479 18.1648 9.0547 17.5272 9.44839C16.8895 9.84208 16.3825 10.4675 16.0847 11.2276C15.7869 11.9877 15.715 12.8399 15.8802 13.6519C14.575 13.5764 13.2981 13.1851 12.1324 12.5036C10.9668 11.8221 9.93841 10.8655 9.11407 9.69603C8.8322 10.2568 8.67013 10.9069 8.67013 11.5992C8.66982 12.2225 8.80291 12.8362 9.05761 13.386C9.3123 13.9357 9.68073 14.4045 10.1302 14.7506C9.60893 14.7315 9.09918 14.5691 8.64335 14.2768V14.3256C8.6433 15.1998 8.90551 16.0471 9.38549 16.7237C9.86547 17.4003 10.5337 17.8646 11.2767 18.0377C10.7931 18.1886 10.2862 18.2109 9.79406 18.1027C10.0037 18.8549 10.412 19.5127 10.9619 19.9839C11.5118 20.4551 12.1758 20.7163 12.8607 20.7308C11.6979 21.7835 10.2619 22.3545 8.78358 22.352C8.52172 22.3521 8.26007 22.3344 8 22.2992C9.50056 23.4118 11.2473 24.0023 13.0313 24C19.0702 24 22.3715 18.2319 22.3715 13.2294C22.3715 13.0668 22.368 12.9027 22.3617 12.7402C23.0038 12.2046 23.5581 11.5414 23.9986 10.7817L24 10.7793Z" fill="#2D3577"/>
<rect x="0.5" y="0.5" width="31" height="31" rx="15.5" stroke="#2D3577"/>
</svg>
