<svg width="16" height="16" viewBox="0 0 16 16" fill="none" xmlns="http://www.w3.org/2000/svg">
<path fill-rule="evenodd" clip-rule="evenodd" d="M8.00073 9.41391L13.6575 15.0708C14.048 15.4613 14.6812 15.4613 15.0717 15.0708C15.4622 14.6802 15.4622 14.0471 15.0717 13.6565L9.41493 7.99971L15.0717 2.34286C15.4622 1.95234 15.4622 1.31917 15.0717 0.928652C14.6812 0.538122 14.048 0.538122 13.6575 0.928652L8.00073 6.58551L2.34382 0.928632C1.9533 0.538112 1.32013 0.538112 0.929609 0.928632C0.539089 1.31916 0.539089 1.95232 0.929609 2.34285L6.58643 7.99971L0.929609 13.6566C0.539089 14.0471 0.539089 14.6802 0.929609 15.0708C1.32013 15.4613 1.9533 15.4613 2.34382 15.0708L8.00073 9.41391Z" fill="#09244B"/>
</svg>
