<svg width="388" height="176" viewBox="0 0 388 176" fill="none" xmlns="http://www.w3.org/2000/svg">
<g clip-path="url(#clip0_1273_2015)">
<path d="M-451.184 337.309C-450.379 282.839 -434.468 187.161 -319.805 223.291C-162.299 272.918 -170.852 77.6576 -26.7872 32.2136C124.481 -15.5034 210.43 114.936 337.454 60.0269C464.478 5.11731 448.58 -191.03 459.726 -222.194" stroke="#FF8E5E" stroke-dasharray="5 5"/>
<path d="M419.238 -222.383C412.99 -129.691 439.958 221.496 84.0551 86.8232C-271.849 -47.8492 -425.127 265.586 -429.541 336.963" stroke="#F68F51" stroke-width="2"/>
<path d="M-509.605 304.136C-508.784 249.648 -449.256 155.446 -355.62 125.869C-242.177 90.0357 -105.648 293.202 31.2031 249.975C168.055 206.747 200.164 -27.6496 254.327 -136.793C308.489 -245.937 369.892 -282.832 410.613 -306.064" stroke="white" stroke-width="2"/>
</g>
<defs>
<clipPath id="clip0_1273_2015">
<rect width="388" height="176" fill="white"/>
</clipPath>
</defs>
</svg>
