<svg width="49" height="37" viewBox="0 0 49 37" fill="none" xmlns="http://www.w3.org/2000/svg">
<path d="M47.45 34.11C43.04 31.9 43.36 32.04 43.11 32.01C40.08 31.67 38.37 31.72 36.37 30.47C30.19 26.62 31.92 24.4 25.45 20.67C24.29 19.97 22 18.79 21.6 18.33C20.31 16.5 21.75 14.8 23.37 15.01C23.92 15.1 23.46 14.91 31.8 19.72C32.95 20.38 33.95 18.65 32.8 17.99L28.01 15.22V8.68C38.71 11.2 41.67 18.07 46.3 22.7C47.24 23.64 48.65 22.22 47.71 21.29C45.52 19.1 45.91 19.54 43.85 16.8C40.13 11.85 34.66 8.09 28 6.64V3C28 1.35 26.65 0 25 0H3C1.34 0 0 1.35 0 3V17C0 18.65 1.34 20 3 20H18.9L18.53 20.59C16.79 23.6 20.06 27.1 23.2 25.43C24.27 27.86 27.41 28.19 29.05 26.26C31.55 29.55 34.82 32.71 38.88 33.54C43.71 34.08 41.95 33.59 46.55 35.89C47.74 36.48 48.63 34.69 47.45 34.1M2 7H26V9H2V7ZM3 2H25C25.55 2 26 2.45 26 3V5H2V3C2 2.45 2.45 2 3 2ZM2 17V11H26V14.07L25.07 13.53C22.06 11.79 18.3 14.54 19.2 18H3C2.45 18 2 17.55 2 17ZM20.81 23.65C20.1 23.23 19.85 22.31 20.25 21.62L21.01 20.42C23.94 22.19 23.68 21.69 23.34 22.28L22.86 23.1C22.44 23.81 21.52 24.06 20.81 23.65ZM25.09 23.25L25.29 22.9C26.17 23.43 26.97 24.04 27.69 24.74C26.64 26.54 24.11 24.93 25.08 23.25" fill="#2D3577"/>
</svg>
