<svg width="81" height="80" viewBox="0 0 81 80" fill="none" xmlns="http://www.w3.org/2000/svg">
<circle cx="40.5" cy="40" r="37.5" fill="white" stroke="#F68F51" stroke-width="5"/>
<g clip-path="url(#clip0_8_331)">
<path d="M58.75 26.625C59.5125 26.625 60.2438 26.9279 60.7829 27.4671C61.3221 28.0062 61.625 28.7375 61.625 29.5V52.5C61.625 53.2625 61.3221 53.9938 60.7829 54.5329C60.2438 55.0721 59.5125 55.375 58.75 55.375H24.25C23.4875 55.375 22.7562 55.0721 22.2171 54.5329C21.6779 53.9938 21.375 53.2625 21.375 52.5V29.5C21.375 28.7375 21.6779 28.0062 22.2171 27.4671C22.7562 26.9279 23.4875 26.625 24.25 26.625H58.75ZM24.25 23.75C22.725 23.75 21.2625 24.3558 20.1841 25.4341C19.1058 26.5125 18.5 27.975 18.5 29.5V52.5C18.5 54.025 19.1058 55.4875 20.1841 56.5659C21.2625 57.6442 22.725 58.25 24.25 58.25H58.75C60.275 58.25 61.7375 57.6442 62.8159 56.5659C63.8942 55.4875 64.5 54.025 64.5 52.5V29.5C64.5 27.975 63.8942 26.5125 62.8159 25.4341C61.7375 24.3558 60.275 23.75 58.75 23.75H24.25Z" fill="#2D3577"/>
<path d="M24.25 33.8125C24.25 33.4313 24.4015 33.0656 24.671 32.796C24.9406 32.5265 25.3063 32.375 25.6875 32.375H31.4375C31.8187 32.375 32.1844 32.5265 32.454 32.796C32.7235 33.0656 32.875 33.4313 32.875 33.8125V36.6875C32.875 37.0687 32.7235 37.4344 32.454 37.704C32.1844 37.9735 31.8187 38.125 31.4375 38.125H25.6875C25.3063 38.125 24.9406 37.9735 24.671 37.704C24.4015 37.4344 24.25 37.0687 24.25 36.6875V33.8125ZM24.25 42.4375C24.25 42.0563 24.4015 41.6906 24.671 41.421C24.9406 41.1514 25.3063 41 25.6875 41H40.0625C40.4438 41 40.8094 41.1514 41.079 41.421C41.3486 41.6906 41.5 42.0563 41.5 42.4375C41.5 42.8187 41.3486 43.1844 41.079 43.454C40.8094 43.7236 40.4438 43.875 40.0625 43.875H25.6875C25.3063 43.875 24.9406 43.7236 24.671 43.454C24.4015 43.1844 24.25 42.8187 24.25 42.4375ZM24.25 48.1875C24.25 47.8063 24.4015 47.4406 24.671 47.171C24.9406 46.9014 25.3063 46.75 25.6875 46.75H28.5625C28.9437 46.75 29.3094 46.9014 29.579 47.171C29.8485 47.4406 30 47.8063 30 48.1875C30 48.5687 29.8485 48.9344 29.579 49.204C29.3094 49.4736 28.9437 49.625 28.5625 49.625H25.6875C25.3063 49.625 24.9406 49.4736 24.671 49.204C24.4015 48.9344 24.25 48.5687 24.25 48.1875ZM32.875 48.1875C32.875 47.8063 33.0265 47.4406 33.296 47.171C33.5656 46.9014 33.9313 46.75 34.3125 46.75H37.1875C37.5687 46.75 37.9344 46.9014 38.204 47.171C38.4736 47.4406 38.625 47.8063 38.625 48.1875C38.625 48.5687 38.4736 48.9344 38.204 49.204C37.9344 49.4736 37.5687 49.625 37.1875 49.625H34.3125C33.9313 49.625 33.5656 49.4736 33.296 49.204C33.0265 48.9344 32.875 48.5687 32.875 48.1875ZM41.5 48.1875C41.5 47.8063 41.6515 47.4406 41.921 47.171C42.1906 46.9014 42.5563 46.75 42.9375 46.75H45.8125C46.1938 46.75 46.5594 46.9014 46.829 47.171C47.0986 47.4406 47.25 47.8063 47.25 48.1875C47.25 48.5687 47.0986 48.9344 46.829 49.204C46.5594 49.4736 46.1938 49.625 45.8125 49.625H42.9375C42.5563 49.625 42.1906 49.4736 41.921 49.204C41.6515 48.9344 41.5 48.5687 41.5 48.1875ZM50.125 48.1875C50.125 47.8063 50.2765 47.4406 50.546 47.171C50.8156 46.9014 51.1813 46.75 51.5625 46.75H54.4375C54.8188 46.75 55.1844 46.9014 55.454 47.171C55.7236 47.4406 55.875 47.8063 55.875 48.1875C55.875 48.5687 55.7236 48.9344 55.454 49.204C55.1844 49.4736 54.8188 49.625 54.4375 49.625H51.5625C51.1813 49.625 50.8156 49.4736 50.546 49.204C50.2765 48.9344 50.125 48.5687 50.125 48.1875Z" fill="#2D3577"/>
</g>
<defs>
<clipPath id="clip0_8_331">
<rect x="18.5" y="18" width="46" height="46" rx="10.9172" fill="white"/>
</clipPath>
</defs>
</svg>
