<svg width="51" height="52" viewBox="0 0 51 52" fill="none" xmlns="http://www.w3.org/2000/svg">
<rect y="0.339844" width="50.7267" height="50.7267" rx="4.49784" fill="#2D3577"/>
<path fill-rule="evenodd" clip-rule="evenodd" d="M10.8711 25.7813C10.8711 32.9869 16.1044 38.9787 22.9489 40.1937V29.7259H19.3256V25.7004H22.9489V22.4792C22.9489 18.8559 25.2835 16.8437 28.5856 16.8437C29.6315 16.8437 30.7596 17.0044 31.8055 17.165V20.8693H29.954C28.1822 20.8693 27.78 21.7546 27.78 22.8826V25.7004H31.6449L31.0012 29.7259H27.78V40.1937C34.6245 38.9787 39.8578 32.9881 39.8578 25.7813C39.8578 17.7653 33.3358 11.207 25.3644 11.207C17.3931 11.207 10.8711 17.7653 10.8711 25.7813Z" fill="white"/>
</svg>
