<svg width="388" height="176" viewBox="0 0 388 176" fill="none" xmlns="http://www.w3.org/2000/svg">
<g clip-path="url(#clip0_1273_2019)">
<path d="M839.184 337.309C838.379 282.839 822.468 187.161 707.805 223.291C550.299 272.918 558.852 77.6576 414.787 32.2136C263.519 -15.5034 177.57 114.936 50.5459 60.0269C-76.4775 5.11731 -60.5803 -191.03 -71.7258 -222.194" stroke="#FF8E5E" stroke-dasharray="5 5"/>
<path d="M-31.2377 -222.383C-24.9902 -129.691 -51.9583 221.496 303.945 86.8232C659.849 -47.8492 813.127 265.586 817.541 336.963" stroke="#F68F51" stroke-width="2"/>
<path d="M897.605 304.136C896.784 249.648 837.256 155.446 743.62 125.869C630.177 90.0357 493.648 293.202 356.797 249.975C219.945 206.747 187.836 -27.6496 133.673 -136.793C79.5106 -245.937 18.1083 -282.832 -22.6131 -306.064" stroke="white" stroke-width="2"/>
</g>
<defs>
<clipPath id="clip0_1273_2019">
<rect width="388" height="176" fill="white" transform="matrix(-1 0 0 1 388 0)"/>
</clipPath>
</defs>
</svg>
