<svg width="20" height="20" viewBox="0 0 20 20" fill="none" xmlns="http://www.w3.org/2000/svg">
<path d="M10 0C15.5228 0 20 4.47715 20 10C20 15.5228 15.5228 20 10 20C4.47715 20 0 15.5228 0 10C0 4.47715 4.47715 0 10 0ZM10 14C7.8009 14 5.85121 14.828 4.56532 15.8707C5.9922 17.1922 7.90177 18 10 18C12.0982 18 14.0078 17.1922 15.4347 15.8707C14.1488 14.828 12.1991 14 10 14ZM10 2C5.58172 2 2 5.58172 2 10C2 11.5996 2.46949 13.0896 3.27819 14.3396C4.92692 12.9918 7.33471 12 10 12C12.6653 12 15.0731 12.9918 16.7218 14.3396C17.5305 13.0896 18 11.5996 18 10C18 5.58172 14.4183 2 10 2ZM10 3C12.2091 3 14 4.79086 14 7C14 9.2091 12.2091 11 10 11C7.79086 11 6 9.2091 6 7C6 4.79086 7.79086 3 10 3ZM10 5C8.8954 5 8 5.89543 8 7C8 8.1046 8.8954 9 10 9C11.1046 9 12 8.1046 12 7C12 5.89543 11.1046 5 10 5Z" fill="#6A7586"/>
</svg>
