<svg width="525" height="540" viewBox="0 0 525 540" fill="none" xmlns="http://www.w3.org/2000/svg">
<g clip-path="url(#clip0_1922_3021)">
<path d="M-95.1836 467.309C-94.3787 412.839 -78.4684 317.161 36.1955 353.291C193.701 402.918 185.148 207.658 329.213 162.214C480.481 114.497 566.43 244.936 693.454 190.027C820.478 135.117 804.58 -61.0302 815.726 -92.1943" stroke="#FF8E5E" stroke-dasharray="5 5"/>
<path d="M775.238 -92.3828C768.99 0.309444 795.958 351.496 440.055 216.823C84.1507 82.1508 -69.1274 395.586 -73.541 466.963" stroke="#F68F51" stroke-width="2"/>
<path d="M-153.605 434.136C-152.784 379.648 -93.2555 285.446 0.379765 255.869C113.823 220.036 250.352 423.202 387.203 379.975C524.055 336.747 556.164 102.35 610.327 -6.79332C664.489 -115.937 725.892 -152.832 766.613 -176.064" stroke="white" stroke-width="2"/>
</g>
<defs>
<clipPath id="clip0_1922_3021">
<rect width="526" height="540" fill="white"/>
</clipPath>
</defs>
</svg>
